<?xml version="1.0" encoding="UTF-8" standalone="no"?><svg xmlns="http://www.w3.org/2000/svg" x="0px" y="0px" viewBox="0 0 16 97" xml:space="preserve" width="16" height="97"><g transform="matrix(0.07106223,0,0,0.07106223,-0.43846047,1.8741008e-6)"><path style="fill:#fff" d="m 7.954,226.53 c -2.23,4.623 -2.295,8.072 -0.609,9.915 3.911,4.275 15.926,-3.905 23.323,-9.051 l 58.416,-40.662 c 7.397,-5.145 20.402,-11.835 29.414,-11.993 0.897,-0.016 1.8,-0.011 2.703,0.011 9.007,0.218 21.958,7.016 29.3,12.238 l 56.403,40.151 c 7.343,5.221 19.303,13.473 23.301,9.219 1.74,-1.849 1.751,-5.33 -0.381,-9.997 L 129.648,7.047 c -4.264,-9.333 -11.335,-9.404 -15.79,-0.163 L 7.954,226.53 Z"/><path style="stroke:#fff;stroke-width:28.14434624;" d="m 118.74748,174.45383 0,1190.45957"/></g></svg>